 <svg
            xmlns="http://www.w3.org/2000/svg"
            x="0px"
            y="0px"
            width="512px"
            height="512px"
            viewBox="0 0 512 512"
          >
            <g>
              <path
                class="st0"
                d="M257.1,19.2C104,19.2,0,97.3,0,218.8c0,74.7,31.1,134.6,91.1,173.2c4,2.6,8.7,3,7,10.4
		c-7.2,29.9-19.6,83.3-19.6,83.3c-0.5,2.3,0.3,4.6,2.2,6c1.8,1.4,4.3,1.6,6.4,0.5c0,0,87.9-52.1,99.6-58.6
		c27.3-15.6,50.9-18.7,68.6-18.7c121.5,0,256.9-48.6,256.9-197.4C512,102,419,19.2,257.1,19.2z M136.9,258.1
		c-16.9,0-30.5-13.7-30.5-30.5s13.7-30.5,30.5-30.5c16.9,0,30.5,13.7,30.5,30.5C167.4,244.5,153.8,258.1,136.9,258.1z M256,258.1
		c-16.9,0-30.5-13.7-30.5-30.5s13.7-30.5,30.5-30.5c16.9,0,30.5,13.7,30.5,30.5C286.5,244.5,272.9,258.1,256,258.1z M375.1,258.1
		c-16.9,0-30.5-13.7-30.5-30.5s13.7-30.5,30.5-30.5c16.9,0,30.5,13.7,30.5,30.5C405.6,244.5,392,258.1,375.1,258.1z"
                style="fill: #666666"
              />
            </g>
            <path
              class="st1"
              d="M483.2,71.7h-42.4V29.3c0-11.8-9.5-21.3-21.3-21.3h-1c-11.8,0-21.3,9.5-21.3,21.3v42.4h-42.4
	c-11.8,0-21.3,9.5-21.3,21.3v1c0,11.8,9.5,21.3,21.3,21.3h42.4v42.4c0,11.8,9.5,21.3,21.3,21.3h1c11.8,0,21.3-9.5,21.3-21.3v-42.4
	h42.4c11.8,0,21.3-9.5,21.3-21.3v-1C504.5,81.2,495,71.7,483.2,71.7z"
              style="fill: #dadada"
            />
          </svg>
